<?xml version="1.0" encoding="utf-8"?>
<!-- Generator: Adobe Illustrator 16.0.0, SVG Export Plug-In . SVG Version: 6.00 Build 0)  -->
<!DOCTYPE svg PUBLIC "-//W3C//DTD SVG 1.1//EN" "http://www.w3.org/Graphics/SVG/1.1/DTD/svg11.dtd">
<svg version="1.1" id="Ebene_1" xmlns="http://www.w3.org/2000/svg" xmlns:xlink="http://www.w3.org/1999/xlink" x="0px" y="0px"
	 width="384.001px" height="383.333px" viewBox="0 0 384.001 383.333" enable-background="new 0 0 384.001 383.333"
	 xml:space="preserve">
<g>
	<ellipse fill="#99C932" cx="192.001" cy="191.667" rx="192" ry="191.667"/>
	<g>
		<path fill="#F7DE50" d="M331.226,229.994v-33.658c0-5.355-3.021-10.247-7.812-12.64l-20.45-10.226l-30.611-38.265
			c-4.471-5.586-11.235-8.839-18.392-8.839H76.864c-5.204,0-9.421,4.217-9.421,9.421v96.562L331.226,229.994L331.226,229.994z"/>
		<path fill="#FACA40" d="M67.443,220.574h263.781c2.604,0,4.711,2.109,4.711,4.709v9.422c0,2.602-2.107,4.709-4.711,4.709H67.443
			c-2.602,0-4.71-2.107-4.71-4.709v-9.422C62.732,222.683,64.843,220.574,67.443,220.574L67.443,220.574z"/>
		<path fill="#F3F3F3" d="M107.48,215.47c11.924,0,21.59,9.668,21.59,21.59c0,11.924-9.666,21.59-21.59,21.59
			s-21.59-9.666-21.59-21.59C85.893,225.136,95.559,215.47,107.48,215.47L107.48,215.47z"/>
		<path fill="#564D5B" d="M107.48,220.574c-9.092,0-16.486,7.395-16.486,16.486s7.396,16.486,16.486,16.486
			c9.093,0,16.486-7.395,16.486-16.486C123.969,227.968,116.574,220.574,107.48,220.574L107.48,220.574z M107.48,262.968
			c-14.286,0-25.907-11.621-25.907-25.908s11.621-25.906,25.907-25.906s25.907,11.621,25.907,25.906
			C133.39,251.345,121.768,262.968,107.48,262.968L107.48,262.968z"/>
		<path fill="#E4E2E4" d="M107.48,227.638c5.203,0,9.421,4.219,9.421,9.42c0,5.205-4.219,9.422-9.421,9.422
			s-9.421-4.217-9.421-9.422C98.062,231.857,102.278,227.638,107.48,227.638L107.48,227.638z"/>
		<path fill="#F3F3F3" d="M286.477,215.47c11.927,0,21.592,9.668,21.592,21.59c0,11.924-9.665,21.59-21.592,21.59
			c-11.923,0-21.589-9.666-21.589-21.59S274.554,215.47,286.477,215.47L286.477,215.47z"/>
		<path fill="#564D5B" d="M286.475,220.574c-9.093,0-16.484,7.395-16.484,16.486s7.395,16.486,16.484,16.486
			c9.094,0,16.486-7.395,16.486-16.486S295.565,220.574,286.475,220.574L286.475,220.574z M286.475,262.968
			c-14.286,0-25.905-11.621-25.905-25.908s11.619-25.906,25.905-25.906s25.907,11.621,25.907,25.906
			S300.761,262.968,286.475,262.968L286.475,262.968z"/>
		<path fill="#E4E2E4" d="M286.477,227.638c5.203,0,9.424,4.219,9.424,9.42c0,5.205-4.221,9.422-9.424,9.422
			c-5.2,0-9.42-4.217-9.42-9.422C277.057,231.857,281.273,227.638,286.477,227.638L286.477,227.638z"/>
		<path fill="#685E6C" d="M272.816,135.787h-6.597c-2.328,0-3.657,2.659-2.262,4.521l22.046,29.393
			c1.777,2.373,4.57,3.769,7.535,3.769h9.422L272.816,135.787L272.816,135.787z"/>
		<path fill="#685E6C" d="M253.976,139.555l22.609,30.146c1.164,1.553,0.057,3.769-1.885,3.769h-51.813
			c-2.602,0-4.71-2.109-4.71-4.71v-28.262c0-2.602,2.108-4.71,4.71-4.71h23.555C249.403,135.787,252.195,137.183,253.976,139.555
			L253.976,139.555z"/>
		<path fill="#685E6C" d="M86.284,173.47h117.762c2.602,0,4.71-2.109,4.71-4.71v-28.262c0-2.602-2.108-4.71-4.71-4.71H86.284
			c-2.602,0-4.71,2.109-4.71,4.71v28.262C81.574,171.361,83.684,173.47,86.284,173.47L86.284,173.47z"/>
		<polygon fill="#564D5B" points="138.1,135.787 147.521,135.787 147.521,173.47 138.1,173.47 		"/>
		<path fill="#FACA40" d="M302.964,197.021h-226.1c-2.603,0-4.71-2.109-4.71-4.71l0,0c0-2.601,2.108-4.71,4.71-4.71h226.1
			c2.604,0,4.71,2.109,4.71,4.71l0,0C307.674,194.912,305.564,197.021,302.964,197.021L302.964,197.021z"/>
		<path fill="#EA5C60" d="M72.153,211.154h-4.71v-32.973h4.71c2.602,0,4.71,2.109,4.71,4.71v23.552
			C76.864,209.044,74.755,211.154,72.153,211.154L72.153,211.154z"/>
		<path fill="#F3F3F3" d="M317.096,192.311v4.71c0,2.602,2.107,4.711,4.709,4.711h9.421v-5.396c0-3.232-1.115-6.285-3.045-8.733
			h-6.376C319.203,187.601,317.096,189.71,317.096,192.311L317.096,192.311z"/>
	</g>
</g>
</svg>
