<?xml version="1.0" encoding="utf-8"?>
<!-- Generator: Adobe Illustrator 16.0.0, SVG Export Plug-In . SVG Version: 6.00 Build 0)  -->
<!DOCTYPE svg PUBLIC "-//W3C//DTD SVG 1.1//EN" "http://www.w3.org/Graphics/SVG/1.1/DTD/svg11.dtd">
<svg version="1.1" id="Ebene_1" xmlns="http://www.w3.org/2000/svg" xmlns:xlink="http://www.w3.org/1999/xlink" x="0px" y="0px"
	 width="983.951px" height="118.494px" viewBox="0 0 983.951 118.494" enable-background="new 0 0 983.951 118.494"
	 xml:space="preserve">
<g>
	<g>
		<path fill="#8BC34A" d="M55.813,24.136c-5.027,0-9.149,1.025-12.37,3.074s-4.831,5.149-4.831,9.296
			c0,4.149,1.61,7.319,4.831,9.515s10.076,4.563,20.568,7.1c10.49,2.539,18.395,6.1,23.715,10.686
			c5.318,4.589,7.979,11.346,7.979,20.275s-3.367,16.176-10.101,21.739c-6.734,5.562-15.567,8.344-26.497,8.344
			c-16.007,0-30.207-5.513-42.6-16.542L27.34,84.596c10.343,8.979,21.08,13.468,32.206,13.468c5.562,0,9.977-1.194,13.248-3.587
			c3.269-2.39,4.904-5.562,4.904-9.516c0-3.952-1.537-7.026-4.611-9.222c-3.074-2.196-8.37-4.195-15.883-6.002
			c-7.517-1.806-13.226-3.464-17.128-4.978c-3.904-1.512-7.37-3.488-10.394-5.929c-6.052-4.586-9.076-11.613-9.076-21.081
			c0-9.465,3.44-16.762,10.32-21.885S46.321,8.18,56.472,8.18c6.537,0,13.028,1.075,19.47,3.221
			c6.441,2.148,12.004,5.174,16.688,9.076l-9.223,13.029c-3.026-2.731-7.125-4.978-12.297-6.734
			C65.937,25.015,60.838,24.136,55.813,24.136z"/>
		<path fill="#8BC34A" d="M124.835,70.835v42.16h-16.396V4.52h16.396v44.795c2.342-4.781,5.878-8.539,10.613-11.272
			c4.732-2.731,9.831-4.099,15.298-4.099c8.783,0,15.883,2.686,21.3,8.052c5.416,5.368,8.125,13.127,8.125,23.275v47.724h-16.396
			V70.249c0-14.346-5.954-21.519-17.859-21.519c-5.661,0-10.59,1.88-14.786,5.636C126.932,58.124,124.835,63.613,124.835,70.835z"/>
		<path fill="#8BC34A" d="M251.169,77.276V35.116h16.396v77.879h-16.396v-14.2c-2.635,4.783-6.272,8.541-10.906,11.272
			c-4.636,2.733-9.639,4.099-15.005,4.099c-8.784,0-15.883-2.683-21.3-8.051c-5.417-5.366-8.125-13.125-8.125-23.276V35.116h16.396
			v42.746c0,14.347,5.952,21.52,17.859,21.52c5.659,0,10.588-1.878,14.786-5.636C249.069,89.989,251.169,84.499,251.169,77.276z"/>
		<path fill="#8BC34A" d="M305.186,48.291v39.526c0,3.71,0.974,6.66,2.928,8.856c1.951,2.195,4.685,3.294,8.198,3.294
			s6.88-1.707,10.101-5.124l6.734,11.564c-5.76,5.174-12.127,7.759-19.104,7.759c-6.979,0-12.933-2.415-17.859-7.246
			c-4.929-4.831-7.393-11.346-7.393-19.543V48.291h-9.808V35.116h9.808V10.668h16.396v24.447h20.495v13.175H305.186z"/>
		<path fill="#8BC34A" d="M360.082,48.291v39.526c0,3.71,0.974,6.66,2.928,8.856c1.951,2.195,4.685,3.294,8.198,3.294
			s6.88-1.707,10.101-5.124l6.734,11.564c-5.76,5.174-12.127,7.759-19.104,7.759c-6.979,0-12.933-2.415-17.859-7.246
			c-4.929-4.831-7.393-11.346-7.393-19.543V48.291h-9.808V35.116h9.808V10.668h16.396v24.447h20.495v13.175H360.082z"/>
		<path fill="#8BC34A" d="M411.172,112.995h-16.396V4.374h16.396V112.995z"/>
		<path fill="#8BC34A" d="M501.053,81.229h-61.044c0.389,5.661,2.976,10.225,7.759,13.688c4.781,3.465,10.248,5.196,16.396,5.196
			c9.758,0,17.176-3.073,22.251-9.222l9.369,10.247c-8.395,8.688-19.324,13.028-32.792,13.028c-10.931,0-20.227-3.635-27.887-10.906
			c-7.663-7.269-11.492-17.029-11.492-29.277c0-12.247,3.902-21.981,11.711-29.205c7.807-7.221,17.004-10.833,27.595-10.833
			c10.588,0,19.591,3.198,27.009,9.589c7.416,6.393,11.125,15.201,11.125,26.423V81.229z M440.009,68.346h44.649
			c0-6.537-2.049-11.564-6.148-15.078c-4.099-3.514-9.149-5.27-15.151-5.27c-6.002,0-11.396,1.83-16.176,5.489
			C442.4,57.147,440.009,62.102,440.009,68.346z"/>
		<path fill="#8BC34A" d="M566.195,26.771v28.107h45.381v15.957h-45.381v42.16h-17.274V10.668h68.218l-0.146,16.103H566.195z"/>
		<path fill="#8BC34A" d="M629.726,19.598c-2.05-2.049-3.074-4.488-3.074-7.319c0-2.83,1.024-5.27,3.074-7.32
			c2.05-2.049,4.487-3.074,7.319-3.074c2.83,0,5.27,1.025,7.32,3.074c2.049,2.05,3.074,4.49,3.074,7.32
			c0,2.832-1.025,5.27-3.074,7.319c-2.051,2.049-4.49,3.074-7.32,3.074C634.214,22.672,631.776,21.647,629.726,19.598z
			 M645.097,112.995h-16.396V35.116h16.396V112.995z"/>
		<path fill="#8BC34A" d="M678.912,70.835v42.16h-16.396V35.116h16.396v14.2c2.635-4.781,6.27-8.539,10.905-11.272
			c4.635-2.731,9.637-4.099,15.006-4.099c8.783,0,15.883,2.686,21.3,8.052c5.416,5.368,8.124,13.127,8.124,23.275v47.724h-16.396
			V70.249c0-14.346-5.954-21.519-17.859-21.519c-5.661,0-10.591,1.88-14.786,5.636C681.009,58.124,678.912,63.613,678.912,70.835z"
			/>
		<path fill="#8BC34A" d="M756.79,103.041c-7.318-7.416-10.979-17.176-10.979-29.278c0-12.101,3.756-21.762,11.271-28.985
			c7.515-7.221,16.469-10.833,26.863-10.833c10.394,0,18.761,4.392,25.105,13.175V4.374h16.396v108.622h-16.396v-11.711
			c-6.053,8.589-14.883,12.882-26.496,12.882C772.696,114.166,764.11,110.458,756.79,103.041z M762.207,74.421
			c0,7.467,2.391,13.541,7.173,18.226c4.781,4.685,10.395,7.027,16.836,7.027c6.44,0,11.904-2.365,16.395-7.101
			c4.488-4.732,6.734-10.808,6.734-18.226c0-7.415-2.246-13.614-6.734-18.591c-4.49-4.977-10.004-7.466-16.541-7.466
			c-6.54,0-12.15,2.489-16.836,7.466C764.55,60.733,762.207,66.955,762.207,74.421z"/>
		<path fill="#8BC34A" d="M915.331,81.229h-61.045c0.389,5.661,2.977,10.225,7.759,13.688c4.78,3.465,10.247,5.196,16.396,5.196
			c9.758,0,17.176-3.073,22.252-9.222l9.369,10.247c-8.395,8.688-19.324,13.028-32.792,13.028c-10.931,0-20.228-3.635-27.888-10.906
			c-7.662-7.269-11.491-17.029-11.491-29.277c0-12.247,3.902-21.981,11.711-29.205c7.808-7.221,17.005-10.833,27.595-10.833
			c10.588,0,19.592,3.198,27.01,9.589c7.415,6.393,11.125,15.201,11.125,26.423V81.229z M854.286,68.346h44.648
			c0-6.537-2.049-11.564-6.147-15.078c-4.099-3.514-9.149-5.27-15.151-5.27s-11.396,1.83-16.176,5.489
			C856.677,57.147,854.286,62.102,854.286,68.346z"/>
		<path fill="#8BC34A" d="M967.885,50.486c-8.103,0-14.2,2.635-18.299,7.905c-4.099,5.271-6.148,12.347-6.148,21.227v33.377h-16.396
			V35.116h16.396v15.664c2.635-4.879,6.222-8.879,10.76-12.004c4.538-3.122,9.344-4.732,14.42-4.831l0.146,16.542
			C968.47,50.486,968.177,50.486,967.885,50.486z"/>
	</g>
</g>
</svg>
