<?xml version="1.0" standalone="no"?>
<!DOCTYPE svg PUBLIC "-//W3C//DTD SVG 20010904//EN"
 "http://www.w3.org/TR/2001/REC-SVG-20010904/DTD/svg10.dtd">
<svg version="1.0" xmlns="http://www.w3.org/2000/svg"
 width="1026.000000pt" height="1026.000000pt" viewBox="0 0 1026.000000 1026.000000"
 preserveAspectRatio="xMidYMid meet">
<metadata>
Created by potrace 1.11, written by Peter Selinger 2001-2013
</metadata>
<g transform="translate(0.000000,1026.000000) scale(0.100000,-0.100000)"
fill="#000000" stroke="none">
<path d="M4965 10240 c-22 -5 -67 -10 -100 -10 -154 -3 -201 -6 -213 -13 -7
-5 -28 -6 -47 -3 -20 4 -36 2 -40 -4 -4 -6 -24 -10 -44 -9 -20 2 -42 0 -48 -4
-7 -4 -24 -5 -38 -1 -15 4 -31 1 -40 -6 -8 -7 -24 -10 -35 -7 -11 3 -23 1 -26
-5 -3 -5 -17 -7 -31 -3 -14 3 -31 1 -39 -5 -7 -7 -18 -9 -24 -5 -6 4 -17 1
-25 -5 -8 -7 -24 -10 -35 -7 -11 3 -20 1 -20 -5 0 -6 -11 -8 -24 -4 -14 3 -28
1 -32 -5 -3 -6 -15 -9 -25 -6 -11 3 -19 1 -19 -5 0 -5 -9 -7 -19 -3 -11 3 -22
1 -26 -5 -4 -6 -15 -8 -26 -5 -11 4 -19 2 -19 -5 0 -7 -8 -10 -20 -7 -11 3
-23 1 -26 -4 -3 -5 -10 -7 -15 -3 -5 3 -16 0 -24 -6 -8 -6 -19 -9 -25 -5 -5 3
-10 1 -10 -5 0 -7 -7 -10 -14 -7 -8 3 -29 -1 -45 -9 -17 -9 -35 -13 -40 -10
-5 4 -12 2 -16 -3 -3 -6 -12 -8 -20 -4 -8 3 -15 0 -15 -7 0 -7 -7 -10 -15 -6
-8 3 -15 1 -15 -5 0 -6 -9 -8 -20 -4 -12 4 -20 2 -20 -5 0 -7 -7 -10 -15 -6
-8 3 -15 1 -15 -5 0 -6 -7 -9 -15 -5 -8 3 -15 1 -15 -5 0 -6 -7 -9 -15 -5 -8
3 -15 1 -15 -5 0 -6 -7 -9 -15 -5 -8 3 -15 1 -15 -5 0 -6 -7 -9 -15 -6 -8 4
-17 2 -20 -4 -4 -5 -11 -7 -16 -4 -5 4 -9 1 -9 -5 0 -7 -7 -10 -15 -6 -8 3
-15 1 -15 -5 0 -6 -7 -9 -15 -5 -8 3 -15 1 -15 -5 0 -6 -7 -9 -15 -5 -8 3 -15
1 -15 -5 0 -6 -4 -8 -9 -4 -5 3 -12 1 -16 -5 -4 -6 -11 -8 -16 -5 -5 4 -9 1
-9 -5 0 -6 -4 -9 -9 -5 -5 3 -12 1 -16 -5 -4 -6 -11 -8 -16 -5 -5 4 -9 1 -9
-5 0 -7 -7 -10 -15 -6 -8 3 -15 1 -15 -5 0 -6 -4 -7 -10 -4 -5 3 -10 1 -10 -5
0 -7 -7 -10 -15 -6 -8 3 -15 0 -15 -6 0 -6 -3 -9 -6 -5 -4 3 -13 -1 -21 -9 -9
-8 -22 -13 -29 -10 -8 3 -14 1 -14 -5 0 -6 -4 -8 -9 -5 -5 4 -11 1 -13 -4 -2
-6 -13 -12 -26 -13 -12 0 -22 -5 -22 -10 0 -4 -4 -5 -10 -2 -5 3 -10 1 -10 -5
0 -6 -4 -8 -10 -5 -5 3 -10 1 -10 -5 0 -6 -4 -8 -10 -5 -5 3 -10 2 -10 -3 0
-9 -47 -27 -62 -24 -5 1 -8 -3 -8 -9 0 -5 -4 -7 -10 -4 -5 3 -10 1 -10 -5 0
-6 -4 -8 -10 -5 -5 3 -10 1 -10 -5 0 -6 -4 -8 -10 -5 -5 3 -10 1 -10 -5 0 -6
-4 -8 -10 -5 -5 3 -10 1 -10 -5 0 -6 -4 -8 -10 -5 -5 3 -10 1 -10 -5 0 -6 -4
-8 -10 -5 -5 3 -10 1 -10 -5 0 -6 -4 -8 -10 -5 -5 3 -10 1 -10 -5 0 -6 -4 -8
-10 -5 -5 3 -10 2 -10 -2 0 -10 -70 -49 -82 -45 -4 1 -8 -3 -8 -9 0 -5 -4 -7
-10 -4 -5 3 -10 1 -10 -5 0 -6 -4 -8 -10 -5 -5 3 -10 1 -10 -4 0 -6 -7 -11
-15 -11 -8 0 -15 -5 -15 -11 0 -5 -4 -7 -10 -4 -5 3 -10 1 -10 -5 0 -6 -4 -9
-9 -6 -5 3 -12 -1 -15 -10 -3 -8 -10 -12 -16 -9 -5 3 -10 1 -10 -5 0 -6 -4 -8
-10 -5 -5 3 -10 1 -10 -4 0 -6 -7 -11 -15 -11 -8 0 -15 -5 -15 -11 0 -5 -4 -8
-9 -5 -5 3 -12 -1 -15 -10 -3 -8 -10 -12 -16 -9 -5 3 -10 1 -10 -4 0 -6 -7
-11 -15 -11 -8 0 -15 -5 -15 -11 0 -5 -4 -8 -9 -5 -5 3 -12 -1 -15 -10 -3 -8
-10 -13 -15 -10 -5 3 -12 -1 -15 -10 -3 -8 -10 -13 -15 -10 -5 3 -12 -1 -15
-10 -3 -8 -10 -13 -15 -10 -5 3 -12 -1 -15 -10 -3 -8 -10 -13 -15 -10 -5 3
-12 -1 -15 -10 -3 -8 -10 -13 -15 -10 -5 3 -12 -1 -15 -10 -3 -8 -10 -12 -16
-9 -6 3 -13 -1 -16 -9 -3 -9 -12 -16 -19 -16 -7 0 -16 -7 -19 -16 -3 -8 -10
-12 -16 -9 -6 3 -13 -1 -16 -9 -3 -9 -12 -16 -19 -16 -7 0 -15 -7 -19 -15 -3
-8 -12 -15 -20 -15 -7 0 -16 -7 -20 -15 -3 -8 -11 -15 -18 -15 -7 0 -19 -9
-26 -20 -7 -12 -17 -18 -21 -15 -5 2 -16 -7 -25 -20 -9 -14 -21 -23 -25 -20
-5 2 -16 -6 -25 -20 -9 -14 -21 -25 -27 -25 -6 0 -20 -11 -31 -25 -11 -14 -25
-25 -31 -25 -7 0 -25 -16 -40 -35 -15 -19 -31 -34 -36 -32 -8 2 -45 -32 -228
-216 -179 -178 -208 -209 -206 -218 2 -5 -15 -23 -37 -40 -22 -18 -37 -35 -34
-40 2 -4 -9 -18 -25 -30 -17 -12 -28 -26 -26 -30 3 -4 -6 -16 -20 -27 -14 -11
-25 -25 -25 -31 0 -5 -9 -15 -20 -21 -11 -6 -18 -15 -15 -20 3 -5 -6 -17 -20
-26 -13 -9 -22 -20 -20 -25 3 -4 -4 -13 -15 -19 -11 -6 -18 -15 -15 -20 3 -5
-4 -14 -15 -20 -11 -6 -18 -15 -15 -21 4 -5 -1 -12 -9 -15 -9 -3 -16 -13 -16
-20 0 -8 -7 -17 -15 -20 -8 -4 -12 -10 -9 -15 3 -5 -2 -12 -10 -15 -9 -3 -13
-10 -10 -15 3 -5 -2 -12 -10 -15 -9 -3 -16 -12 -16 -20 0 -8 -4 -14 -10 -14
-5 0 -10 -7 -10 -15 0 -8 -4 -15 -10 -15 -5 0 -10 -7 -10 -15 0 -8 -4 -15 -10
-15 -5 0 -10 -7 -10 -15 0 -8 -4 -15 -10 -15 -5 0 -10 -7 -10 -15 0 -8 -5 -15
-11 -15 -5 0 -7 -5 -4 -10 3 -6 -1 -13 -9 -16 -9 -3 -13 -10 -10 -15 3 -5 0
-9 -5 -9 -6 0 -11 -7 -11 -15 0 -8 -5 -15 -11 -15 -5 0 -7 -5 -4 -10 3 -6 -1
-13 -9 -16 -9 -3 -13 -10 -10 -15 3 -5 0 -9 -6 -9 -6 0 -9 -4 -6 -9 3 -5 -1
-12 -10 -15 -8 -3 -12 -10 -9 -16 3 -5 1 -10 -5 -10 -6 0 -8 -4 -5 -10 3 -5 1
-10 -4 -10 -6 0 -11 -7 -11 -15 0 -8 -5 -15 -11 -15 -5 0 -7 -4 -4 -10 3 -5 1
-10 -5 -10 -6 0 -8 -4 -5 -10 3 -5 1 -10 -4 -10 -6 0 -10 -3 -9 -7 3 -13 -25
-63 -34 -63 -5 0 -6 -4 -3 -10 3 -5 1 -10 -5 -10 -6 0 -8 -4 -5 -10 3 -5 1
-10 -5 -10 -6 0 -8 -4 -5 -10 3 -5 1 -10 -5 -10 -6 0 -8 -4 -5 -10 3 -5 1 -10
-5 -10 -6 0 -8 -4 -5 -10 3 -5 1 -10 -5 -10 -6 0 -8 -4 -5 -10 3 -5 1 -10 -5
-10 -6 0 -9 -4 -5 -9 3 -5 -1 -16 -9 -24 -8 -8 -12 -17 -9 -21 4 -3 1 -6 -6
-6 -7 0 -9 -4 -6 -10 3 -5 1 -10 -5 -10 -6 0 -8 -4 -5 -10 3 -5 1 -10 -5 -10
-6 0 -8 -4 -5 -10 3 -5 1 -10 -5 -10 -6 0 -8 -4 -5 -10 3 -5 1 -10 -6 -10 -7
0 -10 -3 -6 -6 8 -8 -13 -64 -25 -64 -5 0 -6 -4 -3 -10 3 -5 2 -10 -2 -10 -5
0 -10 -10 -10 -22 -1 -13 -7 -24 -13 -26 -5 -2 -8 -8 -4 -13 3 -5 0 -9 -6 -9
-6 0 -9 -4 -5 -9 3 -5 1 -12 -5 -16 -6 -4 -8 -11 -5 -16 4 -5 1 -9 -5 -9 -6 0
-9 -4 -5 -9 3 -5 1 -12 -5 -16 -6 -4 -8 -11 -5 -16 4 -5 2 -9 -2 -9 -5 0 -9
-10 -10 -22 -1 -11 -6 -24 -10 -27 -4 -3 -10 -15 -11 -26 -2 -11 -8 -21 -12
-23 -5 -2 -6 -10 -3 -18 3 -8 0 -14 -6 -14 -6 0 -8 -7 -5 -15 4 -8 1 -15 -5
-15 -6 0 -10 -3 -10 -7 1 -5 1 -10 -1 -13 -1 -3 -4 -16 -6 -30 -2 -13 -9 -27
-16 -31 -6 -4 -7 -12 -4 -18 4 -6 3 -11 -3 -11 -6 0 -8 -7 -5 -15 4 -8 1 -15
-6 -15 -7 0 -10 -7 -6 -15 3 -8 1 -15 -5 -15 -6 0 -8 -9 -4 -20 4 -12 2 -20
-5 -20 -6 0 -9 -4 -5 -9 3 -5 1 -12 -4 -16 -6 -3 -8 -12 -4 -20 3 -8 0 -15 -6
-15 -6 0 -8 -6 -5 -14 3 -8 1 -17 -5 -20 -6 -4 -8 -13 -4 -21 3 -8 1 -15 -5
-15 -6 0 -8 -9 -5 -20 3 -11 0 -20 -6 -20 -5 0 -8 -7 -5 -15 4 -8 1 -15 -6
-15 -7 0 -9 -8 -5 -20 3 -11 2 -20 -3 -20 -6 0 -8 -9 -5 -20 3 -12 0 -20 -7
-20 -7 0 -9 -8 -5 -20 4 -11 2 -20 -4 -20 -6 0 -8 -7 -5 -15 4 -8 1 -21 -5
-29 -6 -7 -8 -16 -4 -19 3 -4 1 -13 -6 -20 -6 -8 -9 -21 -5 -30 3 -8 1 -18 -4
-21 -6 -3 -8 -15 -5 -26 3 -12 0 -20 -7 -20 -8 0 -10 -8 -6 -24 3 -14 2 -27
-3 -30 -4 -3 -6 -17 -3 -31 2 -15 0 -25 -7 -25 -7 0 -9 -9 -5 -24 3 -13 1 -27
-6 -31 -7 -4 -9 -18 -5 -36 4 -19 3 -29 -5 -29 -7 0 -9 -8 -5 -20 4 -12 1 -27
-5 -35 -7 -8 -9 -26 -5 -44 3 -16 2 -32 -4 -35 -6 -4 -8 -20 -4 -36 3 -16 2
-37 -3 -47 -9 -21 -14 -84 -14 -166 0 -32 -3 -64 -7 -70 -15 -25 -21 -407 -8
-572 4 -55 9 -131 11 -170 7 -120 10 -149 18 -168 5 -10 6 -31 3 -47 -4 -16
-2 -32 4 -36 6 -3 7 -19 4 -35 -4 -18 -2 -36 5 -44 6 -8 9 -23 5 -34 -3 -10
-1 -22 5 -26 7 -4 9 -18 6 -30 -3 -13 -1 -27 5 -30 6 -4 8 -18 5 -31 -4 -15
-2 -24 5 -24 7 0 9 -10 7 -25 -3 -14 -1 -28 3 -31 5 -3 6 -16 3 -30 -4 -16 -2
-24 6 -24 7 0 10 -8 7 -20 -3 -11 -1 -23 5 -26 5 -3 7 -13 4 -21 -4 -9 -1 -22
5 -30 7 -7 9 -16 6 -20 -4 -3 -2 -12 4 -19 6 -8 9 -21 5 -29 -3 -8 -1 -15 5
-15 6 0 8 -9 4 -20 -4 -12 -2 -20 5 -20 7 0 10 -8 7 -20 -3 -11 -1 -20 5 -20
5 0 6 -9 3 -20 -4 -12 -2 -20 5 -20 7 0 10 -7 6 -15 -3 -8 0 -15 5 -15 6 0 9
-9 6 -20 -3 -11 -1 -20 5 -20 6 0 8 -7 5 -15 -4 -8 -2 -17 4 -21 6 -3 8 -12 5
-20 -3 -8 -1 -14 5 -14 6 0 9 -7 6 -15 -4 -8 -2 -17 4 -20 5 -4 7 -10 4 -15
-3 -5 -1 -11 4 -15 6 -3 8 -12 4 -20 -3 -8 0 -15 7 -15 7 0 10 -7 6 -15 -3 -8
-1 -15 5 -15 6 0 9 -7 5 -15 -3 -8 -1 -15 4 -15 5 0 7 -7 4 -15 -4 -8 -1 -15
6 -15 7 0 10 -7 6 -15 -3 -8 -1 -15 4 -15 5 0 7 -7 4 -15 -4 -8 -1 -15 6 -15
6 0 8 -5 5 -10 -3 -5 -1 -10 5 -10 7 0 10 -7 6 -15 -3 -8 -1 -15 5 -15 6 0 9
-6 6 -14 -3 -8 -2 -16 3 -18 4 -2 10 -12 12 -23 1 -11 7 -23 11 -26 4 -3 9
-16 10 -27 1 -12 5 -22 10 -22 5 0 7 -7 3 -15 -3 -8 -1 -15 5 -15 6 0 7 -5 4
-10 -3 -6 -1 -10 5 -10 6 0 9 -4 5 -9 -3 -5 -1 -12 5 -16 6 -4 8 -11 5 -16 -4
-5 -1 -9 4 -9 6 0 10 -3 9 -7 -1 -5 3 -18 10 -29 6 -12 8 -24 5 -28 -3 -3 -1
-6 6 -6 7 0 9 -4 6 -10 -3 -5 -2 -10 3 -10 9 0 27 -47 24 -62 -1 -5 3 -8 9 -8
5 0 7 -4 4 -10 -3 -5 -1 -10 5 -10 6 0 8 -4 5 -10 -3 -5 -1 -10 5 -10 6 0 8
-4 5 -10 -3 -5 -1 -10 5 -10 6 0 8 -4 5 -10 -3 -5 -1 -10 6 -10 7 0 10 -3 6
-6 -3 -4 1 -13 9 -21 8 -8 12 -19 9 -24 -4 -5 -1 -9 5 -9 6 0 8 -4 5 -10 -3
-5 -1 -10 5 -10 6 0 8 -4 5 -10 -3 -5 -1 -10 5 -10 6 0 8 -5 5 -10 -3 -5 -1
-10 5 -10 6 0 8 -4 5 -10 -3 -5 -1 -10 5 -10 6 0 8 -5 5 -10 -3 -6 -1 -10 5
-10 6 0 8 -4 5 -10 -3 -5 -1 -10 5 -10 6 0 8 -4 5 -10 -3 -5 -2 -10 4 -10 6 0
13 -11 17 -25 3 -14 10 -25 16 -25 5 0 6 -4 3 -10 -3 -5 -1 -10 6 -10 7 0 10
-3 6 -6 -3 -3 3 -15 13 -27 11 -11 17 -24 14 -29 -3 -4 0 -8 6 -8 6 0 9 -4 6
-9 -3 -5 1 -12 10 -15 8 -3 12 -10 9 -16 -3 -5 -1 -10 5 -10 6 0 9 -4 6 -9 -3
-5 1 -12 10 -15 8 -3 12 -10 9 -16 -3 -5 -1 -10 5 -10 6 0 9 -4 6 -9 -3 -5 1
-12 10 -15 8 -3 13 -10 10 -15 -3 -5 1 -12 10 -15 9 -4 14 -9 11 -12 -3 -4 3
-15 13 -27 11 -11 17 -23 15 -27 -3 -5 2 -11 11 -14 8 -3 13 -10 10 -15 -3 -5
1 -12 10 -15 8 -3 12 -10 9 -16 -3 -6 1 -13 9 -16 9 -3 13 -10 10 -15 -3 -5 2
-12 10 -15 9 -3 16 -12 16 -19 0 -7 7 -16 16 -19 8 -3 13 -10 10 -15 -3 -5 1
-11 9 -15 8 -3 15 -12 15 -20 0 -7 7 -17 16 -20 8 -3 13 -10 9 -15 -3 -6 4
-15 16 -21 11 -7 18 -14 15 -17 -3 -4 3 -13 14 -20 11 -8 18 -18 15 -23 -3 -5
4 -14 15 -20 11 -6 20 -16 20 -23 0 -7 9 -18 20 -25 12 -7 18 -17 15 -21 -2
-5 6 -16 20 -25 14 -9 25 -23 25 -30 0 -8 11 -21 25 -30 14 -9 25 -22 25 -29
0 -6 16 -25 35 -40 20 -16 33 -32 31 -36 -3 -4 19 -29 49 -55 30 -26 54 -50
52 -54 -3 -10 228 -242 241 -242 6 0 32 -25 58 -55 26 -30 51 -52 55 -49 4 2
20 -11 36 -31 15 -19 34 -35 40 -35 7 0 20 -11 29 -25 9 -14 20 -22 25 -20 4
3 18 -8 30 -24 12 -17 26 -28 30 -25 5 3 14 -4 21 -16 7 -11 18 -20 25 -20 7
0 17 -9 23 -20 6 -11 15 -18 20 -15 5 3 14 -4 20 -15 6 -11 15 -18 20 -15 5 3
14 -4 20 -15 6 -11 15 -18 21 -15 5 4 12 -1 15 -9 3 -9 12 -16 19 -16 7 0 16
-7 19 -16 3 -8 10 -12 16 -9 6 3 13 -1 16 -9 3 -9 10 -13 15 -10 5 3 12 -2 15
-10 3 -9 12 -16 20 -16 8 0 14 -4 14 -10 0 -5 7 -10 15 -10 8 0 15 -4 15 -10
0 -5 7 -10 15 -10 8 0 15 -4 15 -10 0 -5 7 -10 15 -10 8 0 15 -4 15 -10 0 -5
7 -10 15 -10 8 0 15 -5 15 -11 0 -5 5 -7 10 -4 6 3 13 -1 16 -9 3 -9 10 -13
15 -10 5 3 9 0 9 -5 0 -6 7 -11 15 -11 8 0 15 -5 15 -11 0 -5 4 -8 8 -5 5 3
18 -3 29 -14 12 -10 24 -16 27 -13 3 4 6 1 6 -5 0 -7 7 -12 15 -12 8 0 15 -5
15 -11 0 -5 5 -7 10 -4 6 3 10 1 10 -5 0 -6 4 -9 8 -6 5 3 18 -3 29 -14 12
-10 24 -16 27 -13 3 4 6 1 6 -5 0 -7 3 -11 8 -10 12 3 62 -25 62 -34 0 -5 5
-6 10 -3 6 3 10 1 10 -5 0 -6 4 -8 10 -5 6 3 10 1 10 -5 0 -6 4 -8 10 -5 5 3
10 1 10 -5 0 -6 5 -8 10 -5 6 3 10 1 10 -5 0 -6 5 -8 10 -5 5 3 10 1 10 -5 0
-6 4 -8 10 -5 5 3 10 1 10 -5 0 -6 5 -8 10 -5 6 3 10 1 10 -5 0 -6 4 -8 10 -5
5 3 10 1 10 -5 0 -6 5 -8 10 -5 6 3 10 1 10 -5 0 -6 5 -8 10 -5 5 3 10 1 10
-5 0 -6 5 -8 10 -5 6 3 10 1 10 -5 0 -6 5 -8 10 -5 6 3 10 1 10 -4 0 -6 3 -10
8 -9 15 3 62 -15 62 -24 0 -5 5 -6 10 -3 6 3 10 1 10 -5 0 -6 5 -8 10 -5 6 3
10 1 10 -5 0 -6 4 -9 9 -5 5 3 12 1 16 -5 4 -6 11 -8 16 -5 5 4 9 1 9 -5 0 -6
4 -8 10 -5 6 3 10 1 10 -5 0 -6 4 -9 9 -5 5 3 12 1 16 -5 4 -6 11 -8 16 -5 5
4 9 1 9 -5 0 -6 4 -9 9 -5 5 3 12 1 16 -5 4 -6 11 -8 16 -5 5 4 9 2 9 -4 0 -6
7 -8 15 -5 8 4 15 1 15 -6 0 -6 5 -8 10 -5 6 3 10 2 10 -4 0 -6 7 -8 15 -5 8
4 15 1 15 -6 0 -6 4 -9 9 -5 5 3 12 1 16 -5 4 -6 11 -8 16 -5 5 4 9 2 9 -4 0
-6 7 -8 15 -5 8 4 15 1 15 -6 0 -6 4 -9 9 -5 5 3 12 1 16 -4 3 -6 12 -8 20 -4
8 3 15 0 15 -6 0 -6 3 -10 8 -10 4 1 9 0 12 -1 3 -1 13 -3 23 -5 10 -2 26 -7
35 -11 9 -4 20 -8 24 -8 3 -1 9 -4 13 -8 4 -4 13 -4 21 -1 8 3 14 0 14 -7 0
-6 4 -9 9 -5 5 3 12 1 15 -3 3 -5 20 -9 38 -10 18 0 34 -5 36 -11 2 -5 10 -7
18 -4 8 3 14 0 14 -7 0 -7 8 -9 20 -5 12 4 20 2 20 -5 0 -6 5 -8 10 -5 6 3 15
3 22 -1 7 -4 26 -9 42 -11 17 -2 33 -8 36 -13 4 -6 14 -8 22 -5 9 4 19 2 22
-3 3 -6 15 -8 26 -5 11 3 20 0 20 -6 0 -5 6 -8 14 -5 8 3 17 1 21 -5 3 -6 17
-8 31 -5 13 4 24 2 24 -4 0 -6 9 -8 20 -5 12 3 20 0 20 -7 0 -8 8 -10 24 -6
14 3 27 2 30 -3 3 -4 17 -6 31 -3 15 2 25 0 25 -7 0 -7 9 -9 24 -5 13 3 27 1
31 -6 4 -7 18 -9 36 -5 16 4 29 2 29 -3 0 -5 12 -10 28 -11 73 -3 101 -7 107
-13 4 -3 22 -4 41 -1 19 3 40 1 47 -6 8 -6 27 -8 46 -5 19 4 37 2 46 -6 10 -8
31 -10 64 -5 28 4 56 3 63 -2 35 -22 681 -22 716 0 7 5 35 6 63 2 33 -5 54 -3
64 5 9 8 27 10 46 6 19 -3 38 -1 46 5 7 7 28 9 47 6 19 -3 37 -2 41 1 6 6 34
10 108 13 15 1 27 6 27 11 0 5 13 7 29 3 18 -4 32 -2 36 5 4 7 18 9 31 6 15
-4 24 -2 24 5 0 7 10 9 25 7 14 -3 28 -1 31 3 3 5 16 6 30 3 16 -4 24 -2 24 6
0 7 8 10 20 7 11 -3 20 -1 20 5 0 6 11 8 24 4 14 -3 28 -1 31 5 4 6 13 8 21 5
8 -3 14 0 14 5 0 6 9 9 20 6 11 -3 23 -1 26 5 3 5 13 7 22 3 8 -3 18 -1 22 5
3 5 19 11 36 13 16 2 35 7 42 11 7 4 16 4 22 1 6 -3 10 -1 10 5 0 7 8 9 20 5
12 -4 20 -2 20 5 0 7 6 10 14 7 8 -3 16 -1 18 4 2 6 18 11 36 11 18 1 35 5 38
10 3 4 10 6 15 3 5 -4 9 -1 9 5 0 7 6 10 14 7 8 -3 17 -3 21 1 4 4 10 7 13 8
4 0 15 4 24 8 9 4 25 9 35 11 10 2 20 4 23 5 3 1 8 2 13 1 4 0 7 4 7 10 0 6 7
9 15 6 8 -4 17 -2 20 4 4 5 11 7 16 4 5 -4 9 -1 9 5 0 7 7 10 15 6 8 -3 15 -1
15 5 0 6 4 8 9 4 5 -3 12 -1 16 5 4 6 11 8 16 5 5 -4 9 -1 9 5 0 7 7 10 15 6
8 -3 15 -1 15 5 0 6 5 7 10 4 6 -3 10 -1 10 5 0 7 7 10 15 6 8 -3 15 -1 15 5
0 6 4 8 9 4 5 -3 12 -1 16 5 4 6 11 8 16 5 5 -4 9 -1 9 5 0 6 4 9 9 5 5 -3 12
-1 16 5 4 6 11 8 16 5 5 -4 9 -1 9 5 0 6 5 8 10 5 6 -3 10 -1 10 5 0 6 4 9 9
5 5 -3 12 -1 16 5 4 6 11 8 16 5 5 -4 9 -1 9 5 0 6 5 8 10 5 6 -3 10 -1 10 5
0 6 5 8 10 5 6 -3 10 -2 10 3 0 9 47 27 63 24 4 -1 7 3 7 9 0 5 5 7 10 4 6 -3
10 -1 10 5 0 6 5 8 10 5 6 -3 10 -1 10 5 0 6 5 8 10 5 6 -3 10 -1 10 5 0 6 5
8 10 5 6 -3 10 -1 10 5 0 6 5 8 10 5 6 -3 10 -1 10 5 0 6 5 8 10 5 6 -3 10 -1
10 5 0 6 5 8 10 5 6 -3 10 -1 10 5 0 6 5 8 10 5 6 -3 10 -1 10 5 0 6 5 8 10 5
6 -3 10 -1 10 5 0 6 5 8 10 5 6 -3 10 -1 10 5 0 6 5 8 10 5 6 -3 10 -1 10 5 0
6 5 8 10 5 6 -3 10 -2 10 3 0 9 50 37 63 34 4 -1 7 3 7 10 0 6 3 9 6 5 3 -3
15 3 27 13 11 11 24 17 29 14 4 -3 8 0 8 6 0 6 5 8 10 5 6 -3 10 -1 10 4 0 6
7 11 15 11 8 0 15 5 15 12 0 6 3 9 6 5 3 -3 15 3 27 13 11 11 24 17 29 14 4
-3 8 0 8 5 0 6 7 11 15 11 8 0 15 5 15 11 0 5 4 8 9 5 5 -3 12 1 15 10 3 8 10
12 16 9 5 -3 10 -1 10 4 0 6 7 11 15 11 8 0 15 5 15 10 0 6 7 10 15 10 8 0 15
5 15 10 0 6 7 10 15 10 8 0 15 5 15 10 0 6 7 10 15 10 8 0 15 5 15 10 0 6 6
10 14 10 8 0 17 7 20 16 3 8 10 13 15 10 5 -3 12 1 15 10 3 8 10 12 16 9 6 -3
13 1 16 9 3 9 12 16 19 16 7 0 16 7 19 16 3 8 10 13 15 9 6 -3 15 4 21 15 6
11 15 18 20 15 5 -3 14 4 20 15 6 11 15 18 20 15 5 -3 14 4 20 15 6 11 17 20
25 20 8 0 19 9 25 20 6 11 15 18 19 16 4 -3 18 8 30 25 12 16 26 27 30 24 5
-2 16 6 25 20 9 14 22 25 29 25 6 0 25 16 40 35 16 20 32 33 36 31 4 -3 29 19
55 49 26 30 52 55 57 55 14 0 249 235 249 249 0 5 22 29 50 52 27 23 47 45 45
50 -3 4 10 20 30 36 19 15 35 33 35 40 0 6 14 21 30 33 17 12 28 25 25 30 -3
5 6 17 20 26 13 9 22 20 20 25 -3 4 3 14 15 21 11 7 20 18 20 25 0 7 9 17 20
23 11 6 18 15 15 20 -3 5 4 15 15 23 11 7 17 16 14 20 -3 3 4 10 15 17 12 6
19 15 16 21 -4 5 1 12 9 15 9 3 16 13 16 20 0 8 7 17 15 20 8 4 12 10 9 15 -3
5 2 12 10 15 9 3 16 12 16 19 0 7 7 16 16 19 8 3 13 10 10 15 -3 5 1 12 10 15
8 3 12 10 9 16 -3 6 1 13 9 16 9 3 13 10 10 15 -3 5 2 12 10 15 9 3 14 9 11
14 -2 4 4 16 15 27 10 12 16 23 13 27 -3 3 2 8 11 12 9 3 13 10 10 15 -3 5 2
12 10 15 9 3 13 10 10 15 -3 5 0 9 6 9 6 0 8 5 5 10 -3 6 1 13 9 16 9 3 13 10
10 15 -3 5 0 9 6 9 6 0 8 5 5 10 -3 6 1 13 9 16 9 3 13 10 10 15 -3 5 0 9 6 9
6 0 9 4 6 8 -3 5 3 18 14 29 10 12 16 24 13 27 -4 3 -1 6 6 6 7 0 9 4 6 10 -3
5 -2 10 3 10 6 0 13 11 16 25 4 14 11 25 17 25 6 0 7 5 4 10 -3 6 -1 10 5 10
6 0 8 5 5 10 -3 6 -1 10 5 10 6 0 8 5 5 10 -3 6 -1 10 5 10 6 0 8 5 5 10 -3 6
-1 10 5 10 6 0 8 5 5 10 -3 6 -1 10 5 10 6 0 8 4 5 10 -3 5 -1 10 5 10 6 0 8
5 5 10 -3 6 -1 10 5 10 6 0 9 4 5 9 -3 5 1 16 9 24 8 8 12 17 9 21 -4 3 -1 6
6 6 7 0 9 5 6 10 -3 6 -1 10 5 10 6 0 8 5 5 10 -3 6 -1 10 5 10 6 0 8 5 5 10
-3 5 -1 10 5 10 6 0 8 4 5 10 -3 5 -1 10 5 10 6 0 8 5 5 10 -3 6 -2 10 2 10 5
0 10 10 10 22 1 13 7 24 13 26 5 2 8 8 4 13 -3 5 0 9 7 9 7 0 9 3 6 6 -3 4 -1
16 5 28 7 11 11 24 10 29 -1 4 3 7 9 7 5 0 8 4 4 9 -3 5 -1 12 5 16 6 4 8 11
5 16 -4 5 -1 9 5 9 6 0 8 5 5 10 -3 6 -2 10 4 10 6 0 8 7 5 15 -4 8 -2 15 3
15 5 0 9 10 10 22 1 11 6 24 10 27 4 3 10 15 11 26 2 11 8 21 12 23 5 2 6 10
3 18 -3 8 0 14 6 14 6 0 8 7 5 15 -4 8 -1 15 6 15 6 0 8 5 5 10 -3 6 -1 10 5
10 7 0 10 7 6 15 -3 8 -1 15 4 15 5 0 7 7 4 15 -4 8 -1 15 6 15 7 0 10 7 6 15
-3 8 -1 15 4 15 5 0 7 7 4 15 -4 8 -1 15 5 15 6 0 8 7 5 15 -4 8 -1 15 6 15 7
0 10 7 7 15 -4 8 -2 17 4 20 5 4 7 10 4 15 -3 5 -1 11 4 15 6 3 8 12 4 20 -3
8 0 15 6 15 6 0 8 6 5 14 -3 8 0 17 5 21 6 3 9 10 6 15 -3 5 -1 11 4 14 5 3 7
15 4 26 -3 11 0 20 6 20 5 0 8 7 5 15 -4 8 -1 15 6 15 7 0 9 8 5 20 -3 11 -2
20 3 20 6 0 8 9 5 20 -3 12 0 20 7 20 7 0 9 8 5 20 -4 11 -2 20 4 20 6 0 8 7
5 15 -4 8 -1 21 5 29 6 7 8 16 4 19 -3 4 -1 13 6 20 6 8 9 21 5 30 -3 8 -1 18
4 21 6 3 8 15 5 26 -3 12 0 20 7 20 8 0 10 8 6 24 -3 14 -2 27 3 30 4 3 6 17
3 31 -2 14 0 25 6 25 9 0 11 8 13 77 0 16 5 33 10 39 5 6 7 19 3 28 -3 9 -1
23 6 31 7 8 9 26 5 44 -3 16 -2 32 4 35 6 4 8 20 4 36 -3 16 -2 37 3 47 9 21
14 84 14 166 0 32 3 64 7 70 20 33 20 641 0 674 -4 6 -7 38 -7 70 0 82 -5 145
-14 166 -5 10 -6 31 -3 47 4 16 2 32 -4 36 -6 3 -7 19 -4 35 4 18 2 36 -5 44
-6 8 -9 23 -5 35 4 12 2 20 -5 20 -8 0 -9 10 -5 29 4 18 2 32 -5 36 -7 4 -9
18 -6 31 4 15 2 24 -5 24 -7 0 -9 10 -7 25 3 14 1 28 -3 31 -5 3 -6 16 -3 30
4 16 2 24 -6 24 -7 0 -10 8 -7 20 3 11 1 23 -5 26 -5 3 -7 13 -4 21 4 9 1 22
-5 30 -7 7 -9 16 -6 20 4 3 2 12 -4 19 -6 8 -9 21 -5 29 3 8 1 15 -5 15 -6 0
-8 9 -4 20 4 12 2 20 -5 20 -7 0 -10 8 -7 20 3 11 1 20 -5 20 -5 0 -6 9 -3 20
4 12 2 20 -5 20 -7 0 -10 7 -6 15 3 8 0 15 -5 15 -6 0 -9 9 -6 20 3 11 1 20
-5 20 -6 0 -8 7 -5 15 4 8 2 17 -4 21 -6 3 -8 12 -5 20 3 8 1 14 -5 14 -6 0
-9 7 -6 15 4 8 2 17 -4 20 -5 4 -7 11 -4 16 4 5 1 9 -5 9 -7 0 -9 8 -5 20 4
11 2 20 -4 20 -6 0 -8 7 -5 15 4 8 1 15 -6 15 -7 0 -10 7 -6 15 3 8 1 15 -5
15 -6 0 -7 5 -3 11 3 6 2 14 -4 18 -7 4 -14 18 -16 31 -2 14 -5 27 -6 30 -2 3
-2 8 -1 13 0 4 -4 7 -10 7 -6 0 -9 7 -5 15 3 8 1 15 -5 15 -6 0 -9 6 -6 14 3
8 2 16 -3 18 -4 2 -10 12 -12 23 -1 11 -7 23 -11 26 -4 3 -9 16 -10 27 -1 12
-5 22 -10 22 -4 0 -6 4 -2 9 3 5 1 12 -5 16 -6 4 -8 11 -5 16 4 5 1 9 -5 9 -6
0 -9 4 -5 9 3 5 1 12 -5 16 -6 4 -8 11 -5 16 4 5 1 9 -5 9 -6 0 -8 5 -5 10 3
6 1 10 -5 10 -6 0 -9 4 -5 9 3 5 1 12 -5 16 -6 4 -8 11 -5 16 4 5 1 9 -5 9 -6
0 -8 5 -5 10 3 6 2 10 -3 10 -12 0 -33 56 -25 64 4 3 1 6 -6 6 -7 0 -9 5 -6
10 3 6 1 10 -5 10 -6 0 -8 5 -5 10 3 6 1 10 -5 10 -6 0 -8 5 -5 10 3 6 1 10
-5 10 -6 0 -8 5 -5 10 3 6 1 10 -6 10 -7 0 -10 3 -6 6 3 4 -1 13 -9 21 -8 8
-12 19 -9 24 4 5 1 9 -5 9 -6 0 -8 5 -5 10 3 6 1 10 -5 10 -6 0 -8 5 -5 10 3
6 1 10 -5 10 -6 0 -8 5 -5 10 3 6 1 10 -5 10 -6 0 -8 5 -5 10 3 6 1 10 -5 10
-6 0 -8 5 -5 10 3 6 1 10 -5 10 -6 0 -8 5 -5 10 3 6 2 10 -4 10 -5 0 -15 16
-22 35 -7 19 -17 35 -22 35 -4 0 -5 5 -2 10 3 6 1 10 -5 10 -6 0 -8 4 -5 10 3
6 1 10 -4 10 -6 0 -11 7 -11 15 0 8 -5 15 -11 15 -5 0 -7 5 -4 10 3 6 1 10 -5
10 -6 0 -8 5 -5 10 3 6 -1 13 -9 16 -9 3 -13 10 -10 15 3 5 0 9 -6 9 -6 0 -9
4 -6 9 3 5 -1 12 -10 15 -8 3 -12 10 -9 16 3 5 1 10 -4 10 -6 0 -11 7 -11 15
0 8 -5 15 -11 15 -5 0 -8 4 -5 9 3 5 -1 12 -10 15 -8 3 -12 10 -9 16 3 5 1 10
-4 10 -6 0 -11 7 -11 15 0 8 -4 15 -10 15 -5 0 -10 7 -10 15 0 8 -4 15 -10 15
-5 0 -10 7 -10 15 0 8 -4 15 -10 15 -5 0 -10 7 -10 15 0 8 -4 15 -10 15 -5 0
-10 6 -10 14 0 8 -7 17 -16 20 -8 3 -13 10 -10 15 3 5 -1 12 -10 15 -8 3 -13
10 -10 15 3 5 -1 11 -9 15 -8 3 -15 12 -15 20 0 7 -7 17 -16 20 -8 3 -13 10
-9 15 3 6 -4 15 -15 21 -11 6 -18 15 -15 20 3 5 -4 14 -15 20 -11 6 -18 15
-15 19 2 5 -7 16 -20 25 -14 9 -23 21 -20 26 3 5 -4 14 -15 20 -11 6 -20 16
-20 21 0 6 -11 20 -25 31 -14 11 -23 23 -20 27 2 4 -9 18 -26 30 -16 12 -27
26 -25 30 3 5 -13 23 -34 40 -22 18 -38 36 -35 40 2 5 -18 27 -45 50 -28 24
-48 46 -46 50 3 4 -48 57 -112 119 -64 61 -141 135 -171 164 -30 29 -58 52
-62 51 -5 -2 -21 13 -36 32 -15 19 -33 35 -40 35 -7 0 -22 13 -34 30 -12 16
-26 27 -30 24 -5 -2 -16 7 -25 21 -9 13 -20 22 -25 20 -4 -3 -16 6 -25 20 -9
13 -20 22 -25 20 -4 -3 -14 3 -21 15 -7 11 -19 20 -26 20 -7 0 -15 7 -18 15
-4 8 -13 15 -20 15 -8 0 -17 7 -20 15 -4 8 -12 15 -19 15 -7 0 -16 7 -19 16
-3 8 -10 12 -16 9 -6 -3 -13 1 -16 9 -3 9 -12 16 -19 16 -7 0 -16 7 -19 16 -3
8 -10 12 -16 9 -6 -3 -13 1 -16 9 -3 9 -10 13 -15 10 -5 -3 -12 2 -15 10 -3 9
-10 13 -15 10 -5 -3 -12 2 -15 10 -3 9 -10 13 -15 10 -5 -3 -12 2 -15 10 -3 9
-10 13 -15 10 -5 -3 -12 2 -15 10 -3 9 -10 13 -15 10 -5 -3 -12 2 -15 10 -3 9
-10 13 -15 10 -5 -3 -9 0 -9 5 0 6 -7 11 -15 11 -8 0 -15 5 -15 11 0 5 -5 7
-10 4 -6 -3 -13 1 -16 9 -3 9 -10 13 -15 10 -5 -3 -9 0 -9 5 0 6 -7 11 -15 11
-8 0 -15 5 -15 11 0 5 -4 7 -10 4 -5 -3 -10 -1 -10 5 0 6 -4 9 -8 6 -5 -3 -18
3 -29 14 -12 10 -24 16 -27 13 -3 -4 -6 -1 -6 5 0 7 -7 12 -15 12 -8 0 -15 5
-15 11 0 5 -4 7 -10 4 -5 -3 -10 -1 -10 5 0 6 -4 8 -10 5 -5 -3 -10 -1 -10 4
0 6 -4 10 -8 9 -12 -4 -82 35 -82 45 0 4 -4 5 -10 2 -5 -3 -10 -1 -10 5 0 6
-4 8 -10 5 -5 -3 -10 -1 -10 5 0 6 -4 8 -10 5 -5 -3 -10 -1 -10 5 0 6 -4 8
-10 5 -5 -3 -10 -1 -10 5 0 6 -4 8 -10 5 -5 -3 -10 -1 -10 5 0 6 -4 8 -10 5
-5 -3 -10 -1 -10 5 0 6 -4 8 -10 5 -5 -3 -10 -1 -10 5 0 6 -4 8 -10 5 -5 -3
-10 -1 -10 4 0 6 -3 10 -7 9 -16 -3 -63 15 -63 24 0 5 -4 6 -10 3 -5 -3 -10
-1 -10 5 0 6 -4 8 -10 5 -5 -3 -10 -1 -10 5 0 6 -4 8 -10 5 -5 -3 -10 -2 -10
2 0 5 -10 10 -22 10 -13 1 -24 7 -26 13 -2 5 -8 8 -13 4 -5 -3 -9 -1 -9 5 0 6
-6 8 -14 5 -7 -3 -20 2 -29 10 -8 8 -17 12 -21 9 -3 -4 -6 -1 -6 5 0 6 -7 9
-15 6 -8 -4 -15 -1 -15 6 0 6 -4 8 -10 5 -5 -3 -10 -2 -10 4 0 6 -7 8 -15 5
-8 -4 -15 -1 -15 6 0 6 -4 9 -9 5 -5 -3 -12 -1 -16 5 -4 6 -11 8 -16 5 -5 -4
-9 -1 -9 5 0 6 -4 9 -9 5 -5 -3 -12 -1 -16 5 -4 6 -11 8 -16 5 -5 -4 -9 -2 -9
4 0 6 -7 8 -15 5 -8 -4 -15 -1 -15 5 0 6 -7 8 -15 5 -8 -4 -15 -1 -15 5 0 6
-7 8 -15 5 -8 -4 -15 -1 -15 6 0 6 -4 9 -9 5 -5 -3 -12 -1 -16 4 -3 6 -12 8
-20 4 -8 -3 -15 0 -15 6 0 6 -7 8 -15 5 -8 -4 -15 -1 -15 5 0 6 -7 8 -15 5 -8
-4 -15 -1 -15 5 0 6 -7 8 -15 5 -8 -4 -15 -1 -15 5 0 6 -7 8 -15 5 -8 -4 -15
-1 -15 6 0 7 -7 10 -15 7 -8 -4 -17 -2 -20 3 -3 5 -12 7 -20 3 -8 -3 -15 0
-15 7 0 7 -7 10 -15 7 -8 -4 -17 -2 -20 4 -4 5 -11 7 -16 3 -5 -3 -23 1 -40
10 -16 8 -37 12 -45 9 -7 -3 -14 0 -14 7 0 6 -5 8 -10 5 -6 -4 -17 -1 -25 5
-8 6 -19 9 -24 6 -5 -4 -12 -2 -15 3 -3 5 -15 7 -26 4 -12 -3 -20 0 -20 7 0 7
-8 9 -19 5 -11 -3 -22 -1 -26 5 -4 6 -15 8 -26 5 -10 -4 -19 -2 -19 3 0 6 -8
8 -19 5 -10 -3 -22 0 -25 6 -4 6 -18 8 -32 5 -13 -4 -24 -2 -24 4 0 6 -9 8
-20 5 -11 -3 -27 0 -35 7 -8 6 -19 9 -25 5 -6 -4 -17 -2 -24 5 -8 6 -25 8 -39
5 -14 -4 -28 -2 -31 3 -3 6 -15 8 -26 5 -11 -3 -27 0 -35 7 -9 7 -25 10 -40 6
-14 -4 -31 -3 -38 1 -6 4 -28 6 -48 4 -20 -1 -40 3 -44 9 -4 6 -20 8 -40 4
-19 -3 -40 -2 -47 3 -7 4 -42 9 -78 10 -36 1 -99 3 -140 6 -178 12 -388 15
-425 7z m1995 -3383 c95 -32 188 -87 260 -154 39 -36 67 -69 64 -74 -3 -5 -51
-9 -108 -9 -85 0 -106 -3 -118 -17 -24 -27 -30 -60 -17 -85 19 -34 605 -813
631 -838 13 -12 41 -31 63 -43 36 -20 57 -22 212 -24 l172 -2 283 -142 c257
-129 289 -148 344 -203 43 -43 68 -78 85 -121 23 -60 23 -61 20 -422 -3 -347
-2 -363 16 -363 32 0 84 -39 99 -75 10 -25 14 -76 14 -182 0 -168 -10 -202
-71 -235 -30 -16 -61 -18 -296 -18 l-263 0 0 78 c0 370 -318 682 -695 682
-379 0 -694 -307 -695 -677 l0 -83 -1694 0 -1693 0 -6 93 c-9 161 -61 298
-154 410 -147 176 -346 265 -572 255 -367 -17 -658 -312 -664 -675 l-2 -83
-198 0 c-232 0 -257 7 -288 74 -15 33 -19 66 -19 172 0 72 3 146 6 163 8 40
57 90 95 98 l29 6 0 123 0 124 84 0 c70 0 88 4 117 23 57 38 60 61 57 437 -3
310 -4 337 -22 363 -30 44 -66 57 -156 57 l-80 0 0 588 c0 352 4 601 10 621
21 74 85 137 167 167 32 11 446 13 2483 11 2348 -2 2447 -3 2500 -20z m-3955
-2524 c99 -31 208 -122 253 -210 78 -153 64 -336 -36 -468 -160 -211 -468
-234 -657 -49 -98 97 -149 247 -127 374 48 270 310 433 567 353z m4740 12 c97
-16 221 -101 279 -193 76 -121 88 -288 29 -415 -44 -93 -118 -169 -212 -215
-73 -36 -78 -37 -185 -37 -104 0 -115 2 -178 32 -164 77 -258 223 -258 398 0
221 154 403 367 434 58 8 81 8 158 -4z"/>
<path d="M2222 6592 c-17 -16 -34 -40 -37 -53 -3 -13 -4 -211 -3 -440 3 -401
4 -418 23 -439 46 -52 -33 -50 1676 -50 1764 0 1638 -5 1680 64 18 29 19 58
19 446 0 393 -1 417 -19 444 -11 16 -30 35 -43 42 -18 11 -345 13 -1644 14
l-1622 0 -30 -28z"/>
<path d="M5878 6597 c-14 -12 -31 -32 -37 -44 -7 -15 -11 -157 -11 -441 0
-415 0 -420 22 -447 44 -56 27 -55 793 -55 479 0 713 3 726 11 28 15 42 55 27
82 -24 46 -631 848 -656 868 -61 48 -72 49 -466 49 -370 0 -371 0 -398 -23z"/>
</g>
</svg>
